<svg width="280" height="280" viewBox="0 0 280 280" fill="none" xmlns="http://www.w3.org/2000/svg">
<path d="M228.794 115.211C226.897 118.732 221.838 118.711 219.971 115.174L175.841 31.5863C174.083 28.2565 176.497 24.252 180.262 24.252L269.422 24.252C273.206 24.252 275.619 28.2922 273.824 31.6233L228.794 115.211Z" fill="#FF3047"/>
<path d="M49.0014 164.789C50.8985 161.268 55.9574 161.289 57.8249 164.826L101.955 248.414C103.713 251.743 101.298 255.748 97.533 255.748L8.37301 255.748C4.58919 255.748 2.17654 251.708 3.97112 248.377L49.0014 164.789Z" fill="#FF3047"/>
<path d="M4.38445 31.5634C2.64905 28.2346 5.06415 24.252 8.81812 24.252H153.535C155.382 24.252 157.078 25.2697 157.947 26.899L276.078 248.395C277.855 251.726 275.441 255.748 271.667 255.748H124.292C122.428 255.748 120.72 254.712 119.858 253.059L4.38445 31.5634Z" fill="#0035FF"/>
</svg>
